HIERARCHY
ROOT Pelvis
{
	OFFSET 0.000000 0.000000 0.000000
	CHANNELS 6 Xposition Yposition Zposition Zrotation Yrotation Xrotation 
	JOINT Left_hip
	{
		OFFSET 0.070241 -0.085575 -0.010474
		CHANNELS 3 Zrotation Yrotation Xrotation
		JOINT Left_knee
		{
			OFFSET 0.032125 -0.356873 -0.000555
			CHANNELS 3 Zrotation Yrotation Xrotation
			JOINT Left_ankle
			{
				OFFSET -0.010961 -0.370212 -0.042278
				CHANNELS 3 Zrotation Yrotation Xrotation
				JOINT Left_foot
				{
					OFFSET 0.023322 -0.052281 0.110104
					CHANNELS 3 Zrotation Yrotation Xrotation
					End Site
					{
						OFFSET 0.000000 0.000000 0.000000
					}
				}
			}
		}
	}
	JOINT Right_hip
	{
		OFFSET -0.068518 -0.084320 -0.007402
		CHANNELS 3 Zrotation Yrotation Xrotation
		JOINT Right_knee
		{
			OFFSET -0.037345 -0.364815 -0.003619
			CHANNELS 3 Zrotation Yrotation Xrotation
			JOINT Right_ankle
			{
				OFFSET 0.013394 -0.370006 -0.039954
				CHANNELS 3 Zrotation Yrotation Xrotation
				JOINT Right_foot
				{
					OFFSET -0.019600 -0.045455 0.113223
					CHANNELS 3 Zrotation Yrotation Xrotation
					End Site
					{
						OFFSET 0.000000 0.000000 0.000000
					}
				}
			}
		}
	}
	JOINT Spine1
	{
		OFFSET -0.002404 0.098129 -0.018169
		CHANNELS 3 Zrotation Yrotation Xrotation
		JOINT Spine2
		{
			OFFSET 0.003989 0.127209 -0.001742
			CHANNELS 3 Zrotation Yrotation Xrotation
			JOINT Spine3
			{
				OFFSET 0.001758 0.046641 0.023475
				CHANNELS 3 Zrotation Yrotation Xrotation
				JOINT Neck
				{
					OFFSET -0.003759 0.194901 -0.039982
					CHANNELS 3 Zrotation Yrotation Xrotation
					JOINT Head
					{
						OFFSET 0.003999 0.063756 0.047665
						CHANNELS 3 Zrotation Yrotation Xrotation
						End Site
						{
							OFFSET 0.000000 0.000000 0.000000
						}
					}
				}
				JOINT Left_collar
				{
					OFFSET 0.071816 0.109048 -0.028973
					CHANNELS 3 Zrotation Yrotation Xrotation
					JOINT Left_shoulder
					{
						OFFSET 0.084027 0.032269 -0.006525
						CHANNELS 3 Zrotation Yrotation Xrotation
						JOINT Left_elbow
						{
							OFFSET 0.243854 -0.013992 -0.025905
							CHANNELS 3 Zrotation Yrotation Xrotation
							JOINT Left_wrist
							{
								OFFSET 0.232156 0.008196 -0.000339
								CHANNELS 3 Zrotation Yrotation Xrotation
								JOINT Left_palm
								{
									OFFSET 0.075377 -0.009461 -0.012494
									CHANNELS 3 Zrotation Yrotation Xrotation
									End Site
									{
										OFFSET 0.000000 0.000000 0.000000
									}
								}
							}
						}
					}
				}
				JOINT Right_collar
				{
					OFFSET -0.073768 0.107001 -0.033755
					CHANNELS 3 Zrotation Yrotation Xrotation
					JOINT Right_shoulder
					{
						OFFSET -0.086837 0.032868 -0.009431
						CHANNELS 3 Zrotation Yrotation Xrotation
						JOINT Right_elbow
						{
							OFFSET -0.236446 -0.012544 -0.018747
							CHANNELS 3 Zrotation Yrotation Xrotation
							JOINT Right_wrist
							{
								OFFSET -0.236110 0.006124 -0.004327
								CHANNELS 3 Zrotation Yrotation Xrotation
								JOINT Right_palm
								{
									OFFSET -0.074800 -0.006875 -0.009610
									CHANNELS 3 Zrotation Yrotation Xrotation
									End Site
									{
										OFFSET 0.000000 0.000000 0.000000
									}
								}
							}
						}
					}
				}
			}
		}
	}
}
MOTION
Frames: 10
Frame Time: 0.100000
0.000000 0.000000 0.000000 178.390705 18.524275 -9.313864 -1.592609 4.565343 -0.930164 -0.070585 -4.870856 -3.213793 -2.899104 23.539780 -2.575773 9.859214 -3.715541 0.139137 2.383052 -5.511951 -0.284586 -0.792811 3.959328 -1.562313 -2.905869 -22.506691 -3.376264 8.903658 6.301511 8.376618 -0.868115 2.187660 -0.959608 1.416351 -2.337507 -4.650213 -0.968916 1.516356 -1.836429 -1.591234 -4.627234 8.160883 0.505901 -0.714420 11.205707 -7.962174 11.967308 -10.603721 0.476970 -17.195552 -11.707708 4.992659 6.886191 -8.588397 -0.273292 -2.426078 31.871189 -0.859018 -7.358025 -0.671683 12.884091 -6.263594 -8.350025 -1.967440 13.683737 -15.190450 -11.219289 -7.995536 -8.031108 -4.185311 1.306819 34.004389 6.777633 8.889183 -2.818892 
0.000287 -0.000081 0.000298 178.405763 18.734776 -9.329093 -1.607386 4.551717 -0.907969 -0.089750 -4.966022 -3.221776 -2.870595 23.454269 -2.495695 9.749744 -3.635624 0.101493 2.357058 -5.573182 -0.184543 -0.818311 3.948226 -1.655764 -2.865352 -22.555861 -3.387757 8.831688 6.279603 8.374344 -0.847906 2.184172 -0.795203 1.405111 -2.368762 -4.729164 -0.930351 1.507080 -1.671027 -1.637139 -4.508133 8.280208 0.538367 -0.603311 11.090685 -7.806846 11.897111 -10.601564 0.283944 -17.144038 -11.673643 4.948823 7.090813 -8.565427 -0.286296 -2.323332 31.790359 -0.876677 -7.334097 -0.665547 12.707205 -6.286783 -8.374215 -1.811759 13.570592 -15.141902 -11.162731 -7.986212 -7.928212 -4.029162 1.212448 33.903181 6.811899 8.875524 -2.884615 
0.000485 -0.000116 0.000709 178.398214 19.049696 -9.340705 -1.624219 4.509082 -0.893202 -0.103691 -5.118099 -3.250882 -2.949097 23.373122 -2.475364 9.811219 -3.638040 0.101289 2.335622 -5.633824 -0.079226 -0.842071 3.834231 -1.762417 -2.939617 -22.666221 -3.374733 8.911285 6.273224 8.461988 -0.868569 2.172657 -0.833930 1.431476 -2.421077 -4.672421 -0.938996 1.478188 -1.628197 -1.713167 -4.652507 8.566185 0.521854 -0.677156 11.218975 -7.815184 11.941510 -10.573781 0.411371 -17.235523 -11.693181 4.721162 6.768353 -8.534211 -0.189653 -2.465147 31.693676 -0.942872 -7.312157 -0.629023 12.725760 -6.347256 -8.432396 -1.939633 13.539604 -15.175182 -11.063059 -7.918049 -8.024961 -4.127542 1.318003 33.853450 6.828937 8.868404 -2.842611 
0.000470 -0.000137 0.001018 178.422436 19.190969 -9.419369 -1.648961 4.507293 -0.790554 -0.110032 -5.203931 -3.251015 -2.984859 23.356290 -2.471941 9.850548 -3.666090 0.047612 2.304114 -5.690673 0.105102 -0.884583 3.794091 -1.892331 -2.993339 -22.750301 -3.323631 8.990575 6.314038 8.525804 -0.855087 2.211332 -0.906922 1.406235 -2.415026 -4.537351 -0.975108 1.504409 -1.593945 -1.726118 -4.550249 8.749168 0.474165 -0.518484 11.420958 -7.907840 11.952218 -10.537709 0.440335 -17.259822 -11.671199 4.751167 6.335991 -8.542506 -0.142428 -2.474246 31.586933 -1.119589 -7.371173 -0.699587 12.773005 -6.365291 -8.359360 -1.948079 13.514670 -15.147556 -11.079267 -7.867509 -8.045964 -4.162561 1.259363 33.811324 6.940781 8.946136 -2.887061 
0.000415 0.000034 0.000586 178.465914 19.121742 -9.468918 -1.682968 4.513538 -0.753247 -0.112379 -5.116143 -3.235648 -2.984633 23.315960 -2.476044 9.887472 -3.630423 0.087315 2.259222 -5.683858 0.169385 -0.906059 3.734315 -1.964168 -2.987535 -22.638606 -3.254616 8.995867 6.265228 8.526871 -0.803689 2.265271 -0.931237 1.374137 -2.364163 -4.367609 -1.013722 1.557675 -1.647741 -1.765159 -4.470955 8.863935 0.373818 -0.503429 11.431472 -8.146422 11.931918 -10.568122 0.110326 -17.268916 -11.483098 4.854405 6.505910 -8.697033 -0.196502 -2.489496 31.539724 -1.158974 -7.376877 -0.754545 12.965840 -6.246719 -8.320014 -1.775975 13.606559 -15.072500 -11.151321 -7.819058 -8.308338 -4.118312 1.304347 33.712677 6.979450 8.930533 -2.924273 
0.000546 0.000499 -0.000920 178.506947 18.833771 -9.627339 -1.673365 4.602931 -0.633674 -0.116474 -4.909343 -3.252333 -2.944519 23.249740 -2.424738 9.960905 -3.517922 -0.020394 2.235519 -5.620592 0.192683 -0.904059 3.695187 -1.889674 -2.915539 -22.411390 -3.258448 8.844549 6.253051 8.502750 -0.731191 2.317111 -0.830166 1.366458 -2.279487 -4.175888 -1.040765 1.635353 -1.653988 -1.693896 -4.378197 8.742161 0.207678 -0.431711 11.614681 -8.635135 11.880197 -10.613490 -1.136079 -17.486049 -11.149249 5.293999 6.808945 -9.587007 0.218491 -2.345552 30.942557 -1.310961 -7.388770 -0.692213 13.463225 -5.916057 -8.230685 -0.951355 14.233474 -14.768184 -11.489130 -7.821251 -8.692375 -4.537286 1.305584 33.552980 7.038984 8.915427 -2.881659 
0.001527 0.001900 -0.004785 178.610953 18.630503 -9.886980 -1.775140 4.510313 -0.693377 -0.086081 -4.458085 -3.078404 -2.399951 22.846631 -2.096187 9.131295 -2.931793 -0.104664 2.114849 -5.490622 -0.027729 -0.841793 3.419077 -1.465777 -3.028807 -22.015277 -3.289838 8.894868 6.219851 8.721463 -0.726098 2.354243 -0.666587 1.268697 -2.374084 -3.247153 -1.040285 1.698566 -1.894865 -1.563087 -4.285147 7.841637 0.177280 -0.492664 11.651881 -10.064646 10.068217 -9.860217 -4.302883 -17.076576 -10.134714 6.532002 6.742013 -12.732641 2.093754 -2.210996 27.878251 -2.086624 -7.394303 -0.740181 14.655219 -3.881473 -7.125124 2.506640 14.730631 -13.310131 -12.355076 -6.929815 -10.046112 -6.907885 1.719953 31.206633 7.727013 8.785123 -2.756803 
0.003284 0.004867 -0.012283 178.634176 18.682554 -9.797976 -1.753978 3.839444 -1.995131 -0.313893 -3.470858 -2.030189 -1.636716 22.236471 -1.945856 8.481975 -2.161443 -0.277751 2.103540 -5.019998 -1.475510 -0.736685 2.560649 -0.185823 -3.150244 -21.595021 -3.281198 8.628877 6.635712 8.943734 -0.848736 2.356199 0.287400 1.255650 -2.552574 -3.680520 -1.177799 1.763294 -2.040903 -1.579971 -5.254822 5.115730 0.289793 -0.293039 13.525419 -13.563422 7.332941 -8.570885 -12.320350 -18.656901 -5.705100 7.495433 5.584400 -14.246692 8.675159 -2.899988 21.109536 -3.393776 -7.281729 1.099717 18.328147 -1.002561 -5.852075 10.747009 17.112848 -8.462590 -12.841629 -4.469431 -10.062809 -14.698183 2.905331 27.392887 8.938562 8.778923 -1.496877 
0.006342 0.009344 -0.023813 179.039474 17.757982 -10.356281 -1.864139 4.633149 -1.601919 -0.298721 -1.372751 -2.590556 -1.366569 19.496043 -0.894072 7.752040 0.206468 -1.829394 1.662435 -4.217361 -2.608080 -0.566839 0.679149 1.981437 -3.974865 -18.818936 -3.723913 9.496641 5.300316 8.995734 -0.718578 2.503277 -0.293765 0.858072 -2.234660 1.646655 -1.821455 2.181192 -5.346738 -0.172056 -3.861852 2.567898 -0.817164 -2.065991 14.313316 -19.888696 1.509666 -6.376633 -25.298889 -19.560346 3.506939 7.261036 1.621375 -15.434982 12.063700 -6.388542 16.639695 -4.857156 -6.806474 -0.509265 23.938608 5.616400 -1.316059 24.263157 17.904364 1.314156 -11.461935 -0.157812 -11.579852 -18.385008 6.477730 19.676010 9.530933 8.127479 -0.360539 
0.006295 0.012088 -0.036076 179.238566 17.833019 -10.808003 -2.089341 3.978266 -1.377710 -0.472931 0.967646 -3.108188 -0.419928 17.713980 0.730294 7.238806 2.108216 -5.081264 1.353743 -3.610375 -4.483446 -1.041753 -0.889402 5.238886 -1.154087 -17.943223 -4.741229 4.188240 7.187906 8.225518 -0.960781 2.660161 0.576536 0.253905 -2.189546 2.574126 -2.215324 2.757888 -5.058055 -0.817503 -5.193646 -1.223308 0.792636 -1.509468 15.344525 -23.529323 -2.564293 -3.219123 -43.093718 -17.439443 17.477385 5.091260 -20.696274 0.691217 10.613199 -6.814074 12.402401 -10.431213 -8.785730 -3.683028 27.935766 9.917795 2.505352 41.640604 17.540992 13.649012 -8.190617 15.603934 -1.281183 -16.049204 6.006026 15.010051 12.835453 9.919225 -1.571887 
